<svg viewBox="0 0 5152 1184"  version="1.1" xmlns="http://www.w3.org/2000/svg">
<g id="qubit_lines">
<path id="qubit_line:0" d="M64,64 L5120,64 " stroke="black"/>
<text dominant-baseline="central" text-anchor="end" font-family="monospace" font-size="12" x="64" y="64">q0</text>
<path id="qubit_line:1" d="M64,128 L5120,128 " stroke="black"/>
<text dominant-baseline="central" text-anchor="end" font-family="monospace" font-size="12" x="64" y="128">q1</text>
<path id="qubit_line:2" d="M64,192 L5120,192 " stroke="black"/>
<text dominant-baseline="central" text-anchor="end" font-family="monospace" font-size="12" x="64" y="192">q2</text>
<path id="qubit_line:3" d="M64,256 L5120,256 " stroke="black"/>
<text dominant-baseline="central" text-anchor="end" font-family="monospace" font-size="12" x="64" y="256">q3</text>
<path id="qubit_line:4" d="M64,320 L5120,320 " stroke="black"/>
<text dominant-baseline="central" text-anchor="end" font-family="monospace" font-size="12" x="64" y="320">q4</text>
<path id="qubit_line:5" d="M64,384 L5120,384 " stroke="black"/>
<text dominant-baseline="central" text-anchor="end" font-family="monospace" font-size="12" x="64" y="384">q5</text>
<path id="qubit_line:6" d="M64,448 L5120,448 " stroke="black"/>
<text dominant-baseline="central" text-anchor="end" font-family="monospace" font-size="12" x="64" y="448">q6</text>
<path id="qubit_line:7" d="M64,512 L5120,512 " stroke="black"/>
<text dominant-baseline="central" text-anchor="end" font-family="monospace" font-size="12" x="64" y="512">q7</text>
<path id="qubit_line:8" d="M64,576 L5120,576 " stroke="black"/>
<text dominant-baseline="central" text-anchor="end" font-family="monospace" font-size="12" x="64" y="576">q8</text>
<path id="qubit_line:9" d="M64,640 L5120,640 " stroke="black"/>
<text dominant-baseline="central" text-anchor="end" font-family="monospace" font-size="12" x="64" y="640">q9</text>
<path id="qubit_line:10" d="M64,704 L5120,704 " stroke="black"/>
<text dominant-baseline="central" text-anchor="end" font-family="monospace" font-size="12" x="64" y="704">q10</text>
<path id="qubit_line:11" d="M64,768 L5120,768 " stroke="black"/>
<text dominant-baseline="central" text-anchor="end" font-family="monospace" font-size="12" x="64" y="768">q11</text>
<path id="qubit_line:12" d="M64,832 L5120,832 " stroke="black"/>
<text dominant-baseline="central" text-anchor="end" font-family="monospace" font-size="12" x="64" y="832">q12</text>
<path id="qubit_line:13" d="M64,896 L5120,896 " stroke="black"/>
<text dominant-baseline="central" text-anchor="end" font-family="monospace" font-size="12" x="64" y="896">q13</text>
<path id="qubit_line:14" d="M64,960 L5120,960 " stroke="black"/>
<text dominant-baseline="central" text-anchor="end" font-family="monospace" font-size="12" x="64" y="960">q14</text>
<path id="qubit_line:15" d="M64,1024 L5120,1024 " stroke="black"/>
<text dominant-baseline="central" text-anchor="end" font-family="monospace" font-size="12" x="64" y="1024">q15</text>
<path id="qubit_line:16" d="M64,1088 L5120,1088 " stroke="black"/>
<text dominant-baseline="central" text-anchor="end" font-family="monospace" font-size="12" x="64" y="1088">q16</text>
</g>
<rect x="80" y="48" width="32" height="32" stroke="black" fill="black"/>
<text dominant-baseline="central" text-anchor="middle" font-family="monospace" font-size="30" x="96" y="64" fill="white">R</text>
<rect x="80" y="112" width="32" height="32" stroke="black" fill="black"/>
<text dominant-baseline="central" text-anchor="middle" font-family="monospace" font-size="30" x="96" y="128" fill="white">R</text>
<rect x="80" y="176" width="32" height="32" stroke="black" fill="black"/>
<text dominant-baseline="central" text-anchor="middle" font-family="monospace" font-size="30" x="96" y="192" fill="white">R</text>
<rect x="80" y="240" width="32" height="32" stroke="black" fill="black"/>
<text dominant-baseline="central" text-anchor="middle" font-family="monospace" font-size="30" x="96" y="256" fill="white">R</text>
<rect x="80" y="304" width="32" height="32" stroke="black" fill="black"/>
<text dominant-baseline="central" text-anchor="middle" font-family="monospace" font-size="30" x="96" y="320" fill="white">R</text>
<rect x="80" y="368" width="32" height="32" stroke="black" fill="black"/>
<text dominant-baseline="central" text-anchor="middle" font-family="monospace" font-size="30" x="96" y="384" fill="white">R</text>
<rect x="80" y="432" width="32" height="32" stroke="black" fill="black"/>
<text dominant-baseline="central" text-anchor="middle" font-family="monospace" font-size="30" x="96" y="448" fill="white">R</text>
<rect x="80" y="496" width="32" height="32" stroke="black" fill="black"/>
<text dominant-baseline="central" text-anchor="middle" font-family="monospace" font-size="30" x="96" y="512" fill="white">R</text>
<rect x="144" y="48" width="32" height="32" stroke="black" fill="white"/>
<text dominant-baseline="central" text-anchor="middle" font-family="monospace" font-size="30" x="160" y="64">H</text>
<rect x="144" y="112" width="32" height="32" stroke="black" fill="white"/>
<text dominant-baseline="central" text-anchor="middle" font-family="monospace" font-size="30" x="160" y="128">H</text>
<rect x="144" y="176" width="32" height="32" stroke="black" fill="white"/>
<text dominant-baseline="central" text-anchor="middle" font-family="monospace" font-size="30" x="160" y="192">H</text>
<rect x="144" y="240" width="32" height="32" stroke="black" fill="white"/>
<text dominant-baseline="central" text-anchor="middle" font-family="monospace" font-size="30" x="160" y="256">H</text>
<rect x="144" y="560" width="32" height="32" stroke="black" fill="black"/>
<text dominant-baseline="central" text-anchor="middle" font-family="monospace" font-size="26" x="160" y="576" fill="white">R<tspan baseline-shift="sub" font-size="16">X</tspan></text>
<rect x="144" y="624" width="32" height="32" stroke="black" fill="black"/>
<text dominant-baseline="central" text-anchor="middle" font-family="monospace" font-size="26" x="160" y="640" fill="white">R<tspan baseline-shift="sub" font-size="16">X</tspan></text>
<rect x="144" y="688" width="32" height="32" stroke="black" fill="black"/>
<text dominant-baseline="central" text-anchor="middle" font-family="monospace" font-size="26" x="160" y="704" fill="white">R<tspan baseline-shift="sub" font-size="16">X</tspan></text>
<rect x="144" y="752" width="32" height="32" stroke="black" fill="black"/>
<text dominant-baseline="central" text-anchor="middle" font-family="monospace" font-size="26" x="160" y="768" fill="white">R<tspan baseline-shift="sub" font-size="16">X</tspan></text>
<rect x="144" y="816" width="32" height="32" stroke="black" fill="black"/>
<text dominant-baseline="central" text-anchor="middle" font-family="monospace" font-size="26" x="160" y="832" fill="white">R<tspan baseline-shift="sub" font-size="16">X</tspan></text>
<rect x="144" y="880" width="32" height="32" stroke="black" fill="black"/>
<text dominant-baseline="central" text-anchor="middle" font-family="monospace" font-size="26" x="160" y="896" fill="white">R<tspan baseline-shift="sub" font-size="16">X</tspan></text>
<rect x="144" y="944" width="32" height="32" stroke="black" fill="black"/>
<text dominant-baseline="central" text-anchor="middle" font-family="monospace" font-size="26" x="160" y="960" fill="white">R<tspan baseline-shift="sub" font-size="16">X</tspan></text>
<rect x="144" y="1008" width="32" height="32" stroke="black" fill="black"/>
<text dominant-baseline="central" text-anchor="middle" font-family="monospace" font-size="26" x="160" y="1024" fill="white">R<tspan baseline-shift="sub" font-size="16">X</tspan></text>
<rect x="144" y="1072" width="32" height="32" stroke="black" fill="black"/>
<text dominant-baseline="central" text-anchor="middle" font-family="monospace" font-size="26" x="160" y="1088" fill="white">R<tspan baseline-shift="sub" font-size="16">X</tspan></text>
<path d="M224,64 L224,576 " stroke="black"/>
<circle cx="224" cy="64" r="12" stroke="none" fill="black"/>
<circle cx="224" cy="576" r="12" stroke="black" fill="white"/>
<path d="M212,576 L236,576 M224,564 L224,588 " stroke="black"/>
<path d="M288,64 L288,640 " stroke="black"/>
<circle cx="288" cy="64" r="12" stroke="none" fill="black"/>
<circle cx="288" cy="640" r="12" stroke="black" fill="white"/>
<path d="M276,640 L300,640 M288,628 L288,652 " stroke="black"/>
<path d="M352,64 L352,768 " stroke="black"/>
<circle cx="352" cy="64" r="12" stroke="none" fill="black"/>
<circle cx="352" cy="768" r="12" stroke="black" fill="white"/>
<path d="M340,768 L364,768 M352,756 L352,780 " stroke="black"/>
<path d="M416,64 L416,832 " stroke="black"/>
<circle cx="416" cy="64" r="12" stroke="none" fill="black"/>
<circle cx="416" cy="832" r="12" stroke="black" fill="white"/>
<path d="M404,832 L428,832 M416,820 L416,844 " stroke="black"/>
<path d="M68,40 L68,32 L444,32 L444,40 " stroke="black" fill="none"/>
<path d="M68,1144 L68,1152 L444,1152 L444,1144 " stroke="black" fill="none"/>
<path d="M480,128 L480,960 " stroke="black"/>
<circle cx="480" cy="128" r="12" stroke="none" fill="black"/>
<circle cx="480" cy="960" r="12" stroke="black" fill="white"/>
<path d="M468,960 L492,960 M480,948 L480,972 " stroke="black"/>
<path d="M544,128 L544,1024 " stroke="black"/>
<circle cx="544" cy="128" r="12" stroke="none" fill="black"/>
<circle cx="544" cy="1024" r="12" stroke="black" fill="white"/>
<path d="M532,1024 L556,1024 M544,1012 L544,1036 " stroke="black"/>
<path d="M452,40 L452,32 L572,32 L572,40 " stroke="black" fill="none"/>
<path d="M452,1144 L452,1152 L572,1152 L572,1144 " stroke="black" fill="none"/>
<path d="M608,192 L608,640 " stroke="black"/>
<circle cx="608" cy="192" r="12" stroke="none" fill="black"/>
<circle cx="608" cy="640" r="12" stroke="black" fill="white"/>
<path d="M596,640 L620,640 M608,628 L608,652 " stroke="black"/>
<path d="M672,192 L672,704 " stroke="black"/>
<circle cx="672" cy="192" r="12" stroke="none" fill="black"/>
<circle cx="672" cy="704" r="12" stroke="black" fill="white"/>
<path d="M660,704 L684,704 M672,692 L672,716 " stroke="black"/>
<path d="M580,40 L580,32 L700,32 L700,40 " stroke="black" fill="none"/>
<path d="M580,1144 L580,1152 L700,1152 L700,1144 " stroke="black" fill="none"/>
<path d="M736,256 L736,832 " stroke="black"/>
<circle cx="736" cy="256" r="12" stroke="none" fill="black"/>
<circle cx="736" cy="832" r="12" stroke="black" fill="white"/>
<path d="M724,832 L748,832 M736,820 L736,844 " stroke="black"/>
<path d="M800,256 L800,896 " stroke="black"/>
<circle cx="800" cy="256" r="12" stroke="none" fill="black"/>
<circle cx="800" cy="896" r="12" stroke="black" fill="white"/>
<path d="M788,896 L812,896 M800,884 L800,908 " stroke="black"/>
<path d="M864,256 L864,1024 " stroke="black"/>
<circle cx="864" cy="256" r="12" stroke="none" fill="black"/>
<circle cx="864" cy="1024" r="12" stroke="black" fill="white"/>
<path d="M852,1024 L876,1024 M864,1012 L864,1036 " stroke="black"/>
<path d="M928,256 L928,1088 " stroke="black"/>
<circle cx="928" cy="256" r="12" stroke="none" fill="black"/>
<circle cx="928" cy="1088" r="12" stroke="black" fill="white"/>
<path d="M916,1088 L940,1088 M928,1076 L928,1100 " stroke="black"/>
<path d="M708,40 L708,32 L956,32 L956,40 " stroke="black" fill="none"/>
<path d="M708,1144 L708,1152 L956,1152 L956,1144 " stroke="black" fill="none"/>
<path d="M992,320 L992,576 " stroke="black"/>
<circle cx="992" cy="576" r="12" stroke="none" fill="black"/>
<circle cx="992" cy="320" r="12" stroke="black" fill="white"/>
<path d="M980,320 L1004,320 M992,308 L992,332 " stroke="black"/>
<path d="M1056,320 L1056,768 " stroke="black"/>
<circle cx="1056" cy="768" r="12" stroke="none" fill="black"/>
<circle cx="1056" cy="320" r="12" stroke="black" fill="white"/>
<path d="M1044,320 L1068,320 M1056,308 L1056,332 " stroke="black"/>
<path d="M964,40 L964,32 L1084,32 L1084,40 " stroke="black" fill="none"/>
<path d="M964,1144 L964,1152 L1084,1152 L1084,1144 " stroke="black" fill="none"/>
<path d="M1120,384 L1120,640 " stroke="black"/>
<circle cx="1120" cy="640" r="12" stroke="none" fill="black"/>
<circle cx="1120" cy="384" r="12" stroke="black" fill="white"/>
<path d="M1108,384 L1132,384 M1120,372 L1120,396 " stroke="black"/>
<path d="M1184,384 L1184,832 " stroke="black"/>
<circle cx="1184" cy="832" r="12" stroke="none" fill="black"/>
<circle cx="1184" cy="384" r="12" stroke="black" fill="white"/>
<path d="M1172,384 L1196,384 M1184,372 L1184,396 " stroke="black"/>
<path d="M1248,384 L1248,704 " stroke="black"/>
<circle cx="1248" cy="704" r="12" stroke="none" fill="black"/>
<circle cx="1248" cy="384" r="12" stroke="black" fill="white"/>
<path d="M1236,384 L1260,384 M1248,372 L1248,396 " stroke="black"/>
<path d="M1312,384 L1312,896 " stroke="black"/>
<circle cx="1312" cy="896" r="12" stroke="none" fill="black"/>
<circle cx="1312" cy="384" r="12" stroke="black" fill="white"/>
<path d="M1300,384 L1324,384 M1312,372 L1312,396 " stroke="black"/>
<path d="M1092,40 L1092,32 L1340,32 L1340,40 " stroke="black" fill="none"/>
<path d="M1092,1144 L1092,1152 L1340,1152 L1340,1144 " stroke="black" fill="none"/>
<path d="M1376,448 L1376,768 " stroke="black"/>
<circle cx="1376" cy="768" r="12" stroke="none" fill="black"/>
<circle cx="1376" cy="448" r="12" stroke="black" fill="white"/>
<path d="M1364,448 L1388,448 M1376,436 L1376,460 " stroke="black"/>
<path d="M1440,448 L1440,960 " stroke="black"/>
<circle cx="1440" cy="960" r="12" stroke="none" fill="black"/>
<circle cx="1440" cy="448" r="12" stroke="black" fill="white"/>
<path d="M1428,448 L1452,448 M1440,436 L1440,460 " stroke="black"/>
<path d="M1504,448 L1504,832 " stroke="black"/>
<circle cx="1504" cy="832" r="12" stroke="none" fill="black"/>
<circle cx="1504" cy="448" r="12" stroke="black" fill="white"/>
<path d="M1492,448 L1516,448 M1504,436 L1504,460 " stroke="black"/>
<path d="M1568,448 L1568,1024 " stroke="black"/>
<circle cx="1568" cy="1024" r="12" stroke="none" fill="black"/>
<circle cx="1568" cy="448" r="12" stroke="black" fill="white"/>
<path d="M1556,448 L1580,448 M1568,436 L1568,460 " stroke="black"/>
<path d="M1348,40 L1348,32 L1596,32 L1596,40 " stroke="black" fill="none"/>
<path d="M1348,1144 L1348,1152 L1596,1152 L1596,1144 " stroke="black" fill="none"/>
<path d="M1632,512 L1632,896 " stroke="black"/>
<circle cx="1632" cy="896" r="12" stroke="none" fill="black"/>
<circle cx="1632" cy="512" r="12" stroke="black" fill="white"/>
<path d="M1620,512 L1644,512 M1632,500 L1632,524 " stroke="black"/>
<path d="M1696,512 L1696,1088 " stroke="black"/>
<circle cx="1696" cy="1088" r="12" stroke="none" fill="black"/>
<circle cx="1696" cy="512" r="12" stroke="black" fill="white"/>
<path d="M1684,512 L1708,512 M1696,500 L1696,524 " stroke="black"/>
<path d="M1604,40 L1604,32 L1724,32 L1724,40 " stroke="black" fill="none"/>
<path d="M1604,1144 L1604,1152 L1724,1152 L1724,1144 " stroke="black" fill="none"/>
<rect x="1744" y="48" width="32" height="32" stroke="black" fill="white"/>
<text dominant-baseline="central" text-anchor="middle" font-family="monospace" font-size="30" x="1760" y="64">H</text>
<rect x="1744" y="112" width="32" height="32" stroke="black" fill="white"/>
<text dominant-baseline="central" text-anchor="middle" font-family="monospace" font-size="30" x="1760" y="128">H</text>
<rect x="1744" y="176" width="32" height="32" stroke="black" fill="white"/>
<text dominant-baseline="central" text-anchor="middle" font-family="monospace" font-size="30" x="1760" y="192">H</text>
<rect x="1744" y="240" width="32" height="32" stroke="black" fill="white"/>
<text dominant-baseline="central" text-anchor="middle" font-family="monospace" font-size="30" x="1760" y="256">H</text>
<rect x="1808" y="48" width="32" height="32" stroke="black" fill="pink"/>
<text dominant-baseline="central" text-anchor="middle" font-family="monospace" font-size="12" x="1824" y="64">ERR<tspan baseline-shift="sub" font-size="10">X</tspan></text>
<text dominant-baseline="hanging" text-anchor="middle" font-family="monospace" font-size="10" stroke="red" x="1824" y="84">0.01</text>
<rect x="1808" y="112" width="32" height="32" stroke="black" fill="pink"/>
<text dominant-baseline="central" text-anchor="middle" font-family="monospace" font-size="12" x="1824" y="128">ERR<tspan baseline-shift="sub" font-size="10">X</tspan></text>
<text dominant-baseline="hanging" text-anchor="middle" font-family="monospace" font-size="10" stroke="red" x="1824" y="148">0.01</text>
<rect x="1808" y="176" width="32" height="32" stroke="black" fill="pink"/>
<text dominant-baseline="central" text-anchor="middle" font-family="monospace" font-size="12" x="1824" y="192">ERR<tspan baseline-shift="sub" font-size="10">X</tspan></text>
<text dominant-baseline="hanging" text-anchor="middle" font-family="monospace" font-size="10" stroke="red" x="1824" y="212">0.01</text>
<rect x="1808" y="240" width="32" height="32" stroke="black" fill="pink"/>
<text dominant-baseline="central" text-anchor="middle" font-family="monospace" font-size="12" x="1824" y="256">ERR<tspan baseline-shift="sub" font-size="10">X</tspan></text>
<text dominant-baseline="hanging" text-anchor="middle" font-family="monospace" font-size="10" stroke="red" x="1824" y="276">0.01</text>
<rect x="1808" y="304" width="32" height="32" stroke="black" fill="pink"/>
<text dominant-baseline="central" text-anchor="middle" font-family="monospace" font-size="12" x="1824" y="320">ERR<tspan baseline-shift="sub" font-size="10">X</tspan></text>
<text dominant-baseline="hanging" text-anchor="middle" font-family="monospace" font-size="10" stroke="red" x="1824" y="340">0.01</text>
<rect x="1808" y="368" width="32" height="32" stroke="black" fill="pink"/>
<text dominant-baseline="central" text-anchor="middle" font-family="monospace" font-size="12" x="1824" y="384">ERR<tspan baseline-shift="sub" font-size="10">X</tspan></text>
<text dominant-baseline="hanging" text-anchor="middle" font-family="monospace" font-size="10" stroke="red" x="1824" y="404">0.01</text>
<rect x="1808" y="432" width="32" height="32" stroke="black" fill="pink"/>
<text dominant-baseline="central" text-anchor="middle" font-family="monospace" font-size="12" x="1824" y="448">ERR<tspan baseline-shift="sub" font-size="10">X</tspan></text>
<text dominant-baseline="hanging" text-anchor="middle" font-family="monospace" font-size="10" stroke="red" x="1824" y="468">0.01</text>
<rect x="1808" y="496" width="32" height="32" stroke="black" fill="pink"/>
<text dominant-baseline="central" text-anchor="middle" font-family="monospace" font-size="12" x="1824" y="512">ERR<tspan baseline-shift="sub" font-size="10">X</tspan></text>
<text dominant-baseline="hanging" text-anchor="middle" font-family="monospace" font-size="10" stroke="red" x="1824" y="532">0.01</text>
<rect x="1872" y="48" width="32" height="32" stroke="black" fill="black"/>
<text dominant-baseline="central" text-anchor="middle" font-family="monospace" font-size="24" x="1888" y="64" fill="white">MR</text>
<text text-anchor="middle" font-family="monospace" font-size="8" x="1888" y="44">rec[0]</text>
<rect x="1872" y="112" width="32" height="32" stroke="black" fill="black"/>
<text dominant-baseline="central" text-anchor="middle" font-family="monospace" font-size="24" x="1888" y="128" fill="white">MR</text>
<text text-anchor="middle" font-family="monospace" font-size="8" x="1888" y="108">rec[1]</text>
<rect x="1872" y="176" width="32" height="32" stroke="black" fill="black"/>
<text dominant-baseline="central" text-anchor="middle" font-family="monospace" font-size="24" x="1888" y="192" fill="white">MR</text>
<text text-anchor="middle" font-family="monospace" font-size="8" x="1888" y="172">rec[2]</text>
<rect x="1872" y="240" width="32" height="32" stroke="black" fill="black"/>
<text dominant-baseline="central" text-anchor="middle" font-family="monospace" font-size="24" x="1888" y="256" fill="white">MR</text>
<text text-anchor="middle" font-family="monospace" font-size="8" x="1888" y="236">rec[3]</text>
<rect x="1872" y="304" width="32" height="32" stroke="black" fill="black"/>
<text dominant-baseline="central" text-anchor="middle" font-family="monospace" font-size="24" x="1888" y="320" fill="white">MR</text>
<text text-anchor="middle" font-family="monospace" font-size="8" x="1888" y="300">rec[4]</text>
<rect x="1872" y="368" width="32" height="32" stroke="black" fill="black"/>
<text dominant-baseline="central" text-anchor="middle" font-family="monospace" font-size="24" x="1888" y="384" fill="white">MR</text>
<text text-anchor="middle" font-family="monospace" font-size="8" x="1888" y="364">rec[5]</text>
<rect x="1872" y="432" width="32" height="32" stroke="black" fill="black"/>
<text dominant-baseline="central" text-anchor="middle" font-family="monospace" font-size="24" x="1888" y="448" fill="white">MR</text>
<text text-anchor="middle" font-family="monospace" font-size="8" x="1888" y="428">rec[6]</text>
<rect x="1872" y="496" width="32" height="32" stroke="black" fill="black"/>
<text dominant-baseline="central" text-anchor="middle" font-family="monospace" font-size="24" x="1888" y="512" fill="white">MR</text>
<text text-anchor="middle" font-family="monospace" font-size="8" x="1888" y="492">rec[7]</text>
<rect x="1936" y="48" width="160" height="32" stroke="black" fill="lightgray"/>
<text dominant-baseline="central" text-anchor="middle" font-family="monospace" font-size="16" x="2016" y="64">DETECTOR</text>
<text text-anchor="middle" font-family="monospace" font-size="8" x="2016" y="44">D0 = rec[0]</text>
<rect x="1936" y="112" width="160" height="32" stroke="black" fill="lightgray"/>
<text dominant-baseline="central" text-anchor="middle" font-family="monospace" font-size="16" x="2016" y="128">DETECTOR</text>
<text text-anchor="middle" font-family="monospace" font-size="8" x="2016" y="108">D1 = rec[1]</text>
<rect x="1936" y="176" width="160" height="32" stroke="black" fill="lightgray"/>
<text dominant-baseline="central" text-anchor="middle" font-family="monospace" font-size="16" x="2016" y="192">DETECTOR</text>
<text text-anchor="middle" font-family="monospace" font-size="8" x="2016" y="172">D2 = rec[2]</text>
<rect x="1936" y="240" width="160" height="32" stroke="black" fill="lightgray"/>
<text dominant-baseline="central" text-anchor="middle" font-family="monospace" font-size="16" x="2016" y="256">DETECTOR</text>
<text text-anchor="middle" font-family="monospace" font-size="8" x="2016" y="236">D3 = rec[3]</text>
<path d="M1732,40 L1732,32 L2108,32 L2108,40 " stroke="black" fill="none"/>
<path d="M1732,1144 L1732,1152 L2108,1152 L2108,1144 " stroke="black" fill="none"/>
<path d="M2152,32 L2144,32 L2144,1152 L2152,1152 " stroke="black" fill="none"/>
<text dominant-baseline="auto" text-anchor="start" font-family="monospace" font-size="12" x="2148" y="1148">REP2</text>
<rect x="2192" y="48" width="32" height="32" stroke="black" fill="white"/>
<text dominant-baseline="central" text-anchor="middle" font-family="monospace" font-size="30" x="2208" y="64">H</text>
<rect x="2192" y="112" width="32" height="32" stroke="black" fill="white"/>
<text dominant-baseline="central" text-anchor="middle" font-family="monospace" font-size="30" x="2208" y="128">H</text>
<rect x="2192" y="176" width="32" height="32" stroke="black" fill="white"/>
<text dominant-baseline="central" text-anchor="middle" font-family="monospace" font-size="30" x="2208" y="192">H</text>
<rect x="2192" y="240" width="32" height="32" stroke="black" fill="white"/>
<text dominant-baseline="central" text-anchor="middle" font-family="monospace" font-size="30" x="2208" y="256">H</text>
<rect x="2192" y="560" width="32" height="32" stroke="black" fill="black"/>
<text dominant-baseline="central" text-anchor="middle" font-family="monospace" font-size="26" x="2208" y="576" fill="white">R<tspan baseline-shift="sub" font-size="16">X</tspan></text>
<rect x="2192" y="624" width="32" height="32" stroke="black" fill="black"/>
<text dominant-baseline="central" text-anchor="middle" font-family="monospace" font-size="26" x="2208" y="640" fill="white">R<tspan baseline-shift="sub" font-size="16">X</tspan></text>
<rect x="2192" y="688" width="32" height="32" stroke="black" fill="black"/>
<text dominant-baseline="central" text-anchor="middle" font-family="monospace" font-size="26" x="2208" y="704" fill="white">R<tspan baseline-shift="sub" font-size="16">X</tspan></text>
<rect x="2192" y="752" width="32" height="32" stroke="black" fill="black"/>
<text dominant-baseline="central" text-anchor="middle" font-family="monospace" font-size="26" x="2208" y="768" fill="white">R<tspan baseline-shift="sub" font-size="16">X</tspan></text>
<rect x="2192" y="816" width="32" height="32" stroke="black" fill="black"/>
<text dominant-baseline="central" text-anchor="middle" font-family="monospace" font-size="26" x="2208" y="832" fill="white">R<tspan baseline-shift="sub" font-size="16">X</tspan></text>
<rect x="2192" y="880" width="32" height="32" stroke="black" fill="black"/>
<text dominant-baseline="central" text-anchor="middle" font-family="monospace" font-size="26" x="2208" y="896" fill="white">R<tspan baseline-shift="sub" font-size="16">X</tspan></text>
<rect x="2192" y="944" width="32" height="32" stroke="black" fill="black"/>
<text dominant-baseline="central" text-anchor="middle" font-family="monospace" font-size="26" x="2208" y="960" fill="white">R<tspan baseline-shift="sub" font-size="16">X</tspan></text>
<rect x="2192" y="1008" width="32" height="32" stroke="black" fill="black"/>
<text dominant-baseline="central" text-anchor="middle" font-family="monospace" font-size="26" x="2208" y="1024" fill="white">R<tspan baseline-shift="sub" font-size="16">X</tspan></text>
<rect x="2192" y="1072" width="32" height="32" stroke="black" fill="black"/>
<text dominant-baseline="central" text-anchor="middle" font-family="monospace" font-size="26" x="2208" y="1088" fill="white">R<tspan baseline-shift="sub" font-size="16">X</tspan></text>
<path d="M2272,64 L2272,576 " stroke="black"/>
<circle cx="2272" cy="64" r="12" stroke="none" fill="black"/>
<circle cx="2272" cy="576" r="12" stroke="black" fill="white"/>
<path d="M2260,576 L2284,576 M2272,564 L2272,588 " stroke="black"/>
<path d="M2336,64 L2336,640 " stroke="black"/>
<circle cx="2336" cy="64" r="12" stroke="none" fill="black"/>
<circle cx="2336" cy="640" r="12" stroke="black" fill="white"/>
<path d="M2324,640 L2348,640 M2336,628 L2336,652 " stroke="black"/>
<path d="M2400,64 L2400,768 " stroke="black"/>
<circle cx="2400" cy="64" r="12" stroke="none" fill="black"/>
<circle cx="2400" cy="768" r="12" stroke="black" fill="white"/>
<path d="M2388,768 L2412,768 M2400,756 L2400,780 " stroke="black"/>
<path d="M2464,64 L2464,832 " stroke="black"/>
<circle cx="2464" cy="64" r="12" stroke="none" fill="black"/>
<circle cx="2464" cy="832" r="12" stroke="black" fill="white"/>
<path d="M2452,832 L2476,832 M2464,820 L2464,844 " stroke="black"/>
<path d="M2180,40 L2180,32 L2492,32 L2492,40 " stroke="black" fill="none"/>
<path d="M2180,1144 L2180,1152 L2492,1152 L2492,1144 " stroke="black" fill="none"/>
<path d="M2528,128 L2528,960 " stroke="black"/>
<circle cx="2528" cy="128" r="12" stroke="none" fill="black"/>
<circle cx="2528" cy="960" r="12" stroke="black" fill="white"/>
<path d="M2516,960 L2540,960 M2528,948 L2528,972 " stroke="black"/>
<path d="M2592,128 L2592,1024 " stroke="black"/>
<circle cx="2592" cy="128" r="12" stroke="none" fill="black"/>
<circle cx="2592" cy="1024" r="12" stroke="black" fill="white"/>
<path d="M2580,1024 L2604,1024 M2592,1012 L2592,1036 " stroke="black"/>
<path d="M2500,40 L2500,32 L2620,32 L2620,40 " stroke="black" fill="none"/>
<path d="M2500,1144 L2500,1152 L2620,1152 L2620,1144 " stroke="black" fill="none"/>
<path d="M2656,192 L2656,640 " stroke="black"/>
<circle cx="2656" cy="192" r="12" stroke="none" fill="black"/>
<circle cx="2656" cy="640" r="12" stroke="black" fill="white"/>
<path d="M2644,640 L2668,640 M2656,628 L2656,652 " stroke="black"/>
<path d="M2720,192 L2720,704 " stroke="black"/>
<circle cx="2720" cy="192" r="12" stroke="none" fill="black"/>
<circle cx="2720" cy="704" r="12" stroke="black" fill="white"/>
<path d="M2708,704 L2732,704 M2720,692 L2720,716 " stroke="black"/>
<path d="M2628,40 L2628,32 L2748,32 L2748,40 " stroke="black" fill="none"/>
<path d="M2628,1144 L2628,1152 L2748,1152 L2748,1144 " stroke="black" fill="none"/>
<path d="M2784,256 L2784,832 " stroke="black"/>
<circle cx="2784" cy="256" r="12" stroke="none" fill="black"/>
<circle cx="2784" cy="832" r="12" stroke="black" fill="white"/>
<path d="M2772,832 L2796,832 M2784,820 L2784,844 " stroke="black"/>
<path d="M2848,256 L2848,896 " stroke="black"/>
<circle cx="2848" cy="256" r="12" stroke="none" fill="black"/>
<circle cx="2848" cy="896" r="12" stroke="black" fill="white"/>
<path d="M2836,896 L2860,896 M2848,884 L2848,908 " stroke="black"/>
<path d="M2912,256 L2912,1024 " stroke="black"/>
<circle cx="2912" cy="256" r="12" stroke="none" fill="black"/>
<circle cx="2912" cy="1024" r="12" stroke="black" fill="white"/>
<path d="M2900,1024 L2924,1024 M2912,1012 L2912,1036 " stroke="black"/>
<path d="M2976,256 L2976,1088 " stroke="black"/>
<circle cx="2976" cy="256" r="12" stroke="none" fill="black"/>
<circle cx="2976" cy="1088" r="12" stroke="black" fill="white"/>
<path d="M2964,1088 L2988,1088 M2976,1076 L2976,1100 " stroke="black"/>
<path d="M2756,40 L2756,32 L3004,32 L3004,40 " stroke="black" fill="none"/>
<path d="M2756,1144 L2756,1152 L3004,1152 L3004,1144 " stroke="black" fill="none"/>
<path d="M3040,320 L3040,576 " stroke="black"/>
<circle cx="3040" cy="576" r="12" stroke="none" fill="black"/>
<circle cx="3040" cy="320" r="12" stroke="black" fill="white"/>
<path d="M3028,320 L3052,320 M3040,308 L3040,332 " stroke="black"/>
<path d="M3104,320 L3104,768 " stroke="black"/>
<circle cx="3104" cy="768" r="12" stroke="none" fill="black"/>
<circle cx="3104" cy="320" r="12" stroke="black" fill="white"/>
<path d="M3092,320 L3116,320 M3104,308 L3104,332 " stroke="black"/>
<path d="M3012,40 L3012,32 L3132,32 L3132,40 " stroke="black" fill="none"/>
<path d="M3012,1144 L3012,1152 L3132,1152 L3132,1144 " stroke="black" fill="none"/>
<path d="M3168,384 L3168,640 " stroke="black"/>
<circle cx="3168" cy="640" r="12" stroke="none" fill="black"/>
<circle cx="3168" cy="384" r="12" stroke="black" fill="white"/>
<path d="M3156,384 L3180,384 M3168,372 L3168,396 " stroke="black"/>
<path d="M3232,384 L3232,832 " stroke="black"/>
<circle cx="3232" cy="832" r="12" stroke="none" fill="black"/>
<circle cx="3232" cy="384" r="12" stroke="black" fill="white"/>
<path d="M3220,384 L3244,384 M3232,372 L3232,396 " stroke="black"/>
<path d="M3296,384 L3296,704 " stroke="black"/>
<circle cx="3296" cy="704" r="12" stroke="none" fill="black"/>
<circle cx="3296" cy="384" r="12" stroke="black" fill="white"/>
<path d="M3284,384 L3308,384 M3296,372 L3296,396 " stroke="black"/>
<path d="M3360,384 L3360,896 " stroke="black"/>
<circle cx="3360" cy="896" r="12" stroke="none" fill="black"/>
<circle cx="3360" cy="384" r="12" stroke="black" fill="white"/>
<path d="M3348,384 L3372,384 M3360,372 L3360,396 " stroke="black"/>
<path d="M3140,40 L3140,32 L3388,32 L3388,40 " stroke="black" fill="none"/>
<path d="M3140,1144 L3140,1152 L3388,1152 L3388,1144 " stroke="black" fill="none"/>
<path d="M3424,448 L3424,768 " stroke="black"/>
<circle cx="3424" cy="768" r="12" stroke="none" fill="black"/>
<circle cx="3424" cy="448" r="12" stroke="black" fill="white"/>
<path d="M3412,448 L3436,448 M3424,436 L3424,460 " stroke="black"/>
<path d="M3488,448 L3488,960 " stroke="black"/>
<circle cx="3488" cy="960" r="12" stroke="none" fill="black"/>
<circle cx="3488" cy="448" r="12" stroke="black" fill="white"/>
<path d="M3476,448 L3500,448 M3488,436 L3488,460 " stroke="black"/>
<path d="M3552,448 L3552,832 " stroke="black"/>
<circle cx="3552" cy="832" r="12" stroke="none" fill="black"/>
<circle cx="3552" cy="448" r="12" stroke="black" fill="white"/>
<path d="M3540,448 L3564,448 M3552,436 L3552,460 " stroke="black"/>
<path d="M3616,448 L3616,1024 " stroke="black"/>
<circle cx="3616" cy="1024" r="12" stroke="none" fill="black"/>
<circle cx="3616" cy="448" r="12" stroke="black" fill="white"/>
<path d="M3604,448 L3628,448 M3616,436 L3616,460 " stroke="black"/>
<path d="M3396,40 L3396,32 L3644,32 L3644,40 " stroke="black" fill="none"/>
<path d="M3396,1144 L3396,1152 L3644,1152 L3644,1144 " stroke="black" fill="none"/>
<path d="M3680,512 L3680,896 " stroke="black"/>
<circle cx="3680" cy="896" r="12" stroke="none" fill="black"/>
<circle cx="3680" cy="512" r="12" stroke="black" fill="white"/>
<path d="M3668,512 L3692,512 M3680,500 L3680,524 " stroke="black"/>
<path d="M3744,512 L3744,1088 " stroke="black"/>
<circle cx="3744" cy="1088" r="12" stroke="none" fill="black"/>
<circle cx="3744" cy="512" r="12" stroke="black" fill="white"/>
<path d="M3732,512 L3756,512 M3744,500 L3744,524 " stroke="black"/>
<path d="M3652,40 L3652,32 L3772,32 L3772,40 " stroke="black" fill="none"/>
<path d="M3652,1144 L3652,1152 L3772,1152 L3772,1144 " stroke="black" fill="none"/>
<rect x="3792" y="48" width="32" height="32" stroke="black" fill="white"/>
<text dominant-baseline="central" text-anchor="middle" font-family="monospace" font-size="30" x="3808" y="64">H</text>
<rect x="3792" y="112" width="32" height="32" stroke="black" fill="white"/>
<text dominant-baseline="central" text-anchor="middle" font-family="monospace" font-size="30" x="3808" y="128">H</text>
<rect x="3792" y="176" width="32" height="32" stroke="black" fill="white"/>
<text dominant-baseline="central" text-anchor="middle" font-family="monospace" font-size="30" x="3808" y="192">H</text>
<rect x="3792" y="240" width="32" height="32" stroke="black" fill="white"/>
<text dominant-baseline="central" text-anchor="middle" font-family="monospace" font-size="30" x="3808" y="256">H</text>
<rect x="3856" y="48" width="32" height="32" stroke="black" fill="pink"/>
<text dominant-baseline="central" text-anchor="middle" font-family="monospace" font-size="12" x="3872" y="64">ERR<tspan baseline-shift="sub" font-size="10">X</tspan></text>
<text dominant-baseline="hanging" text-anchor="middle" font-family="monospace" font-size="10" stroke="red" x="3872" y="84">0.01</text>
<rect x="3856" y="112" width="32" height="32" stroke="black" fill="pink"/>
<text dominant-baseline="central" text-anchor="middle" font-family="monospace" font-size="12" x="3872" y="128">ERR<tspan baseline-shift="sub" font-size="10">X</tspan></text>
<text dominant-baseline="hanging" text-anchor="middle" font-family="monospace" font-size="10" stroke="red" x="3872" y="148">0.01</text>
<rect x="3856" y="176" width="32" height="32" stroke="black" fill="pink"/>
<text dominant-baseline="central" text-anchor="middle" font-family="monospace" font-size="12" x="3872" y="192">ERR<tspan baseline-shift="sub" font-size="10">X</tspan></text>
<text dominant-baseline="hanging" text-anchor="middle" font-family="monospace" font-size="10" stroke="red" x="3872" y="212">0.01</text>
<rect x="3856" y="240" width="32" height="32" stroke="black" fill="pink"/>
<text dominant-baseline="central" text-anchor="middle" font-family="monospace" font-size="12" x="3872" y="256">ERR<tspan baseline-shift="sub" font-size="10">X</tspan></text>
<text dominant-baseline="hanging" text-anchor="middle" font-family="monospace" font-size="10" stroke="red" x="3872" y="276">0.01</text>
<rect x="3856" y="304" width="32" height="32" stroke="black" fill="pink"/>
<text dominant-baseline="central" text-anchor="middle" font-family="monospace" font-size="12" x="3872" y="320">ERR<tspan baseline-shift="sub" font-size="10">X</tspan></text>
<text dominant-baseline="hanging" text-anchor="middle" font-family="monospace" font-size="10" stroke="red" x="3872" y="340">0.01</text>
<rect x="3856" y="368" width="32" height="32" stroke="black" fill="pink"/>
<text dominant-baseline="central" text-anchor="middle" font-family="monospace" font-size="12" x="3872" y="384">ERR<tspan baseline-shift="sub" font-size="10">X</tspan></text>
<text dominant-baseline="hanging" text-anchor="middle" font-family="monospace" font-size="10" stroke="red" x="3872" y="404">0.01</text>
<rect x="3856" y="432" width="32" height="32" stroke="black" fill="pink"/>
<text dominant-baseline="central" text-anchor="middle" font-family="monospace" font-size="12" x="3872" y="448">ERR<tspan baseline-shift="sub" font-size="10">X</tspan></text>
<text dominant-baseline="hanging" text-anchor="middle" font-family="monospace" font-size="10" stroke="red" x="3872" y="468">0.01</text>
<rect x="3856" y="496" width="32" height="32" stroke="black" fill="pink"/>
<text dominant-baseline="central" text-anchor="middle" font-family="monospace" font-size="12" x="3872" y="512">ERR<tspan baseline-shift="sub" font-size="10">X</tspan></text>
<text dominant-baseline="hanging" text-anchor="middle" font-family="monospace" font-size="10" stroke="red" x="3872" y="532">0.01</text>
<rect x="3920" y="48" width="32" height="32" stroke="black" fill="black"/>
<text dominant-baseline="central" text-anchor="middle" font-family="monospace" font-size="24" x="3936" y="64" fill="white">MR</text>
<text text-anchor="middle" font-family="monospace" font-size="8" x="3936" y="44">rec[8+iter*8]</text>
<rect x="3920" y="112" width="32" height="32" stroke="black" fill="black"/>
<text dominant-baseline="central" text-anchor="middle" font-family="monospace" font-size="24" x="3936" y="128" fill="white">MR</text>
<text text-anchor="middle" font-family="monospace" font-size="8" x="3936" y="108">rec[9+iter*8]</text>
<rect x="3920" y="176" width="32" height="32" stroke="black" fill="black"/>
<text dominant-baseline="central" text-anchor="middle" font-family="monospace" font-size="24" x="3936" y="192" fill="white">MR</text>
<text text-anchor="middle" font-family="monospace" font-size="8" x="3936" y="172">rec[10+iter*8]</text>
<rect x="3920" y="240" width="32" height="32" stroke="black" fill="black"/>
<text dominant-baseline="central" text-anchor="middle" font-family="monospace" font-size="24" x="3936" y="256" fill="white">MR</text>
<text text-anchor="middle" font-family="monospace" font-size="8" x="3936" y="236">rec[11+iter*8]</text>
<rect x="3920" y="304" width="32" height="32" stroke="black" fill="black"/>
<text dominant-baseline="central" text-anchor="middle" font-family="monospace" font-size="24" x="3936" y="320" fill="white">MR</text>
<text text-anchor="middle" font-family="monospace" font-size="8" x="3936" y="300">rec[12+iter*8]</text>
<rect x="3920" y="368" width="32" height="32" stroke="black" fill="black"/>
<text dominant-baseline="central" text-anchor="middle" font-family="monospace" font-size="24" x="3936" y="384" fill="white">MR</text>
<text text-anchor="middle" font-family="monospace" font-size="8" x="3936" y="364">rec[13+iter*8]</text>
<rect x="3920" y="432" width="32" height="32" stroke="black" fill="black"/>
<text dominant-baseline="central" text-anchor="middle" font-family="monospace" font-size="24" x="3936" y="448" fill="white">MR</text>
<text text-anchor="middle" font-family="monospace" font-size="8" x="3936" y="428">rec[14+iter*8]</text>
<rect x="3920" y="496" width="32" height="32" stroke="black" fill="black"/>
<text dominant-baseline="central" text-anchor="middle" font-family="monospace" font-size="24" x="3936" y="512" fill="white">MR</text>
<text text-anchor="middle" font-family="monospace" font-size="8" x="3936" y="492">rec[15+iter*8]</text>
<rect x="3984" y="48" width="224" height="32" stroke="black" fill="lightgray"/>
<text dominant-baseline="central" text-anchor="middle" font-family="monospace" font-size="16" x="4096" y="64">DETECTOR</text>
<text text-anchor="middle" font-family="monospace" font-size="8" x="4096" y="44">D[4+iter*4] = rec[8+iter*8]*rec[0+iter*8]</text>
<rect x="3984" y="112" width="224" height="32" stroke="black" fill="lightgray"/>
<text dominant-baseline="central" text-anchor="middle" font-family="monospace" font-size="16" x="4096" y="128">DETECTOR</text>
<text text-anchor="middle" font-family="monospace" font-size="8" x="4096" y="108">D[5+iter*4] = rec[9+iter*8]*rec[1+iter*8]</text>
<rect x="3984" y="176" width="224" height="32" stroke="black" fill="lightgray"/>
<text dominant-baseline="central" text-anchor="middle" font-family="monospace" font-size="16" x="4096" y="192">DETECTOR</text>
<text text-anchor="middle" font-family="monospace" font-size="8" x="4096" y="172">D[6+iter*4] = rec[10+iter*8]*rec[2+iter*8]</text>
<rect x="3984" y="240" width="224" height="32" stroke="black" fill="lightgray"/>
<text dominant-baseline="central" text-anchor="middle" font-family="monospace" font-size="16" x="4096" y="256">DETECTOR</text>
<text text-anchor="middle" font-family="monospace" font-size="8" x="4096" y="236">D[7+iter*4] = rec[11+iter*8]*rec[3+iter*8]</text>
<path d="M3780,40 L3780,32 L4220,32 L4220,40 " stroke="black" fill="none"/>
<path d="M3780,1144 L3780,1152 L4220,1152 L4220,1144 " stroke="black" fill="none"/>
<path d="M4248,32 L4256,32 L4256,1152 L4248,1152 " stroke="black" fill="none"/>
<rect x="4304" y="560" width="32" height="32" stroke="black" fill="pink"/>
<text dominant-baseline="central" text-anchor="middle" font-family="monospace" font-size="12" x="4320" y="576">ERR<tspan baseline-shift="sub" font-size="10">X</tspan></text>
<text dominant-baseline="hanging" text-anchor="middle" font-family="monospace" font-size="10" stroke="red" x="4320" y="596">0.01</text>
<rect x="4304" y="624" width="32" height="32" stroke="black" fill="pink"/>
<text dominant-baseline="central" text-anchor="middle" font-family="monospace" font-size="12" x="4320" y="640">ERR<tspan baseline-shift="sub" font-size="10">X</tspan></text>
<text dominant-baseline="hanging" text-anchor="middle" font-family="monospace" font-size="10" stroke="red" x="4320" y="660">0.01</text>
<rect x="4304" y="688" width="32" height="32" stroke="black" fill="pink"/>
<text dominant-baseline="central" text-anchor="middle" font-family="monospace" font-size="12" x="4320" y="704">ERR<tspan baseline-shift="sub" font-size="10">X</tspan></text>
<text dominant-baseline="hanging" text-anchor="middle" font-family="monospace" font-size="10" stroke="red" x="4320" y="724">0.01</text>
<rect x="4304" y="752" width="32" height="32" stroke="black" fill="pink"/>
<text dominant-baseline="central" text-anchor="middle" font-family="monospace" font-size="12" x="4320" y="768">ERR<tspan baseline-shift="sub" font-size="10">X</tspan></text>
<text dominant-baseline="hanging" text-anchor="middle" font-family="monospace" font-size="10" stroke="red" x="4320" y="788">0.01</text>
<rect x="4304" y="816" width="32" height="32" stroke="black" fill="pink"/>
<text dominant-baseline="central" text-anchor="middle" font-family="monospace" font-size="12" x="4320" y="832">ERR<tspan baseline-shift="sub" font-size="10">X</tspan></text>
<text dominant-baseline="hanging" text-anchor="middle" font-family="monospace" font-size="10" stroke="red" x="4320" y="852">0.01</text>
<rect x="4304" y="880" width="32" height="32" stroke="black" fill="pink"/>
<text dominant-baseline="central" text-anchor="middle" font-family="monospace" font-size="12" x="4320" y="896">ERR<tspan baseline-shift="sub" font-size="10">X</tspan></text>
<text dominant-baseline="hanging" text-anchor="middle" font-family="monospace" font-size="10" stroke="red" x="4320" y="916">0.01</text>
<rect x="4304" y="944" width="32" height="32" stroke="black" fill="pink"/>
<text dominant-baseline="central" text-anchor="middle" font-family="monospace" font-size="12" x="4320" y="960">ERR<tspan baseline-shift="sub" font-size="10">X</tspan></text>
<text dominant-baseline="hanging" text-anchor="middle" font-family="monospace" font-size="10" stroke="red" x="4320" y="980">0.01</text>
<rect x="4304" y="1008" width="32" height="32" stroke="black" fill="pink"/>
<text dominant-baseline="central" text-anchor="middle" font-family="monospace" font-size="12" x="4320" y="1024">ERR<tspan baseline-shift="sub" font-size="10">X</tspan></text>
<text dominant-baseline="hanging" text-anchor="middle" font-family="monospace" font-size="10" stroke="red" x="4320" y="1044">0.01</text>
<rect x="4304" y="1072" width="32" height="32" stroke="black" fill="pink"/>
<text dominant-baseline="central" text-anchor="middle" font-family="monospace" font-size="12" x="4320" y="1088">ERR<tspan baseline-shift="sub" font-size="10">X</tspan></text>
<text dominant-baseline="hanging" text-anchor="middle" font-family="monospace" font-size="10" stroke="red" x="4320" y="1108">0.01</text>
<rect x="4368" y="560" width="32" height="32" stroke="black" fill="black"/>
<text dominant-baseline="central" text-anchor="middle" font-family="monospace" font-size="26" x="4384" y="576" fill="white">M<tspan baseline-shift="sub" font-size="16">X</tspan></text>
<text text-anchor="middle" font-family="monospace" font-size="8" x="4384" y="556">rec[24]</text>
<rect x="4368" y="624" width="32" height="32" stroke="black" fill="black"/>
<text dominant-baseline="central" text-anchor="middle" font-family="monospace" font-size="26" x="4384" y="640" fill="white">M<tspan baseline-shift="sub" font-size="16">X</tspan></text>
<text text-anchor="middle" font-family="monospace" font-size="8" x="4384" y="620">rec[25]</text>
<rect x="4368" y="688" width="32" height="32" stroke="black" fill="black"/>
<text dominant-baseline="central" text-anchor="middle" font-family="monospace" font-size="26" x="4384" y="704" fill="white">M<tspan baseline-shift="sub" font-size="16">X</tspan></text>
<text text-anchor="middle" font-family="monospace" font-size="8" x="4384" y="684">rec[26]</text>
<rect x="4368" y="752" width="32" height="32" stroke="black" fill="black"/>
<text dominant-baseline="central" text-anchor="middle" font-family="monospace" font-size="26" x="4384" y="768" fill="white">M<tspan baseline-shift="sub" font-size="16">X</tspan></text>
<text text-anchor="middle" font-family="monospace" font-size="8" x="4384" y="748">rec[27]</text>
<rect x="4368" y="816" width="32" height="32" stroke="black" fill="black"/>
<text dominant-baseline="central" text-anchor="middle" font-family="monospace" font-size="26" x="4384" y="832" fill="white">M<tspan baseline-shift="sub" font-size="16">X</tspan></text>
<text text-anchor="middle" font-family="monospace" font-size="8" x="4384" y="812">rec[28]</text>
<rect x="4368" y="880" width="32" height="32" stroke="black" fill="black"/>
<text dominant-baseline="central" text-anchor="middle" font-family="monospace" font-size="26" x="4384" y="896" fill="white">M<tspan baseline-shift="sub" font-size="16">X</tspan></text>
<text text-anchor="middle" font-family="monospace" font-size="8" x="4384" y="876">rec[29]</text>
<rect x="4368" y="944" width="32" height="32" stroke="black" fill="black"/>
<text dominant-baseline="central" text-anchor="middle" font-family="monospace" font-size="26" x="4384" y="960" fill="white">M<tspan baseline-shift="sub" font-size="16">X</tspan></text>
<text text-anchor="middle" font-family="monospace" font-size="8" x="4384" y="940">rec[30]</text>
<rect x="4368" y="1008" width="32" height="32" stroke="black" fill="black"/>
<text dominant-baseline="central" text-anchor="middle" font-family="monospace" font-size="26" x="4384" y="1024" fill="white">M<tspan baseline-shift="sub" font-size="16">X</tspan></text>
<text text-anchor="middle" font-family="monospace" font-size="8" x="4384" y="1004">rec[31]</text>
<rect x="4368" y="1072" width="32" height="32" stroke="black" fill="black"/>
<text dominant-baseline="central" text-anchor="middle" font-family="monospace" font-size="26" x="4384" y="1088" fill="white">M<tspan baseline-shift="sub" font-size="16">X</tspan></text>
<text text-anchor="middle" font-family="monospace" font-size="8" x="4384" y="1068">rec[32]</text>
<rect x="4368" y="48" width="416" height="32" stroke="black" fill="lightgray"/>
<text dominant-baseline="central" text-anchor="middle" font-family="monospace" font-size="16" x="4576" y="64">DETECTOR</text>
<text text-anchor="middle" font-family="monospace" font-size="8" x="4576" y="44">D12 = rec[24]*rec[25]*rec[27]*rec[28]*rec[16]</text>
<rect x="4368" y="112" width="288" height="32" stroke="black" fill="lightgray"/>
<text dominant-baseline="central" text-anchor="middle" font-family="monospace" font-size="16" x="4512" y="128">DETECTOR</text>
<text text-anchor="middle" font-family="monospace" font-size="8" x="4512" y="108">D13 = rec[30]*rec[31]*rec[17]</text>
<rect x="4368" y="176" width="288" height="32" stroke="black" fill="lightgray"/>
<text dominant-baseline="central" text-anchor="middle" font-family="monospace" font-size="16" x="4512" y="192">DETECTOR</text>
<text text-anchor="middle" font-family="monospace" font-size="8" x="4512" y="172">D14 = rec[25]*rec[26]*rec[18]</text>
<rect x="4368" y="240" width="416" height="32" stroke="black" fill="lightgray"/>
<text dominant-baseline="central" text-anchor="middle" font-family="monospace" font-size="16" x="4576" y="256">DETECTOR</text>
<text text-anchor="middle" font-family="monospace" font-size="8" x="4576" y="236">D15 = rec[28]*rec[29]*rec[31]*rec[32]*rec[19]</text>
<rect x="4816" y="560" width="288" height="32" stroke="black" fill="lightgray"/>
<text dominant-baseline="central" text-anchor="middle" font-family="monospace" font-size="16" x="4960" y="576">OBS_INCLUDE(0)</text>
<text text-anchor="middle" font-family="monospace" font-size="8" x="4960" y="556">L0 *= rec[24]*rec[27]*rec[30]</text>
<path d="M4292,40 L4292,32 L5116,32 L5116,40 " stroke="black" fill="none"/>
<path d="M4292,1144 L4292,1152 L5116,1152 L5116,1144 " stroke="black" fill="none"/>
</svg>